<svg data-v-0dd9719b="" version="1.0" xmlns="http://www.w3.org/2000/svg" xmlns:xlink="http://www.w3.org/1999/xlink" width="100%" height="100%" viewBox="0 0 340.000000 250.000000" preserveAspectRatio="xMidYMid meet" color-interpolation-filters="sRGB" style="margin: auto;"> <rect data-v-0dd9719b="" x="0" y="0" width="100%" height="100%" fill="#ffffff" fill-opacity="1" class="background"></rect> <rect data-v-0dd9719b="" x="0" y="0" width="100%" height="100%" fill="url(#watermark)" fill-opacity="1" class="watermarklayer"></rect> <g data-v-0dd9719b="" fill="#333" class="icon-text-wrapper icon-svg-group iconsvg" transform="translate(60.36000061035156,97.60414123535156)"><g class="iconsvg-imagesvg" transform="translate(0,0)"><g><rect fill="#333" fill-opacity="0" stroke-width="2" x="0" y="0" width="55" height="54.18559057367762" class="image-rect"></rect> <svg x="0" y="0" width="55" height="54.18559057367762" filtersec="colorsb9990365474" class="image-svg-svg primary" style="overflow: visible;"><svg xmlns="http://www.w3.org/2000/svg" viewBox="0 0 371.3399658203125 365.8399963378906"><title>资源 41</title><path d="M221.94 360c11.54-12.5 24.86-23.28 35.21-36.94q13.44-17.76 27.42-35.12c6.6-8.18 14-15.52 23.95-19.79 5.72-2.45 11.14-3.28 16.41.6s6.29 9.59 5.69 15.54c-1.22 12-7 21.89-15.21 30.45-22 22.77-48.85 37.23-78.89 46.23-2.08.62-4.37.52-6.55.75-2.65-.63-5.74.69-8.03-1.72z" fill="#f49e4a"></path><path d="M371.17 177.64c-7.43-6.26-12.31-13-19.44-17.4-30.12-18.44-59-12.75-87.35 4.21-22.84 13.68-38.68 34.26-53.58 55.55-11.54 16.51-22.27 33.65-36.45 48.08-18.78 19.09-39.09 35.78-67.6 37.46-39.46 2.33-74.33-15-92.14-51.73C4.59 233.18.12 211.17 0 188.26c2.54-1 3 1.14 3.85 2.14 25.4 29.77 61.06 31.82 93.2 16 25.06-12.34 43.09-32.28 58.84-54.54 16.73-23.64 32.39-48.05 54.27-67.59 33.22-29.67 79.77-33.66 116.21-9.15 23.9 16.07 35.12 40.33 41.45 67.39a119.29 119.29 0 0 1 3.35 35.13z" fill="#ee7854"></path><path d="M66.47 323c15 3.56 28.69 6.7 42.92 4.89 26.29-3.36 49-14.2 68.48-32.1C198.39 277 214 254.36 229.55 231.5c14.45-21.3 30.77-41 54.45-53 25.75-13.06 52.77-8.82 68.89 11.81 11.91 15.23 12.9 33 9.05 51.21-1.6 7.57-3.82 15-7.67 21.79-1.34 2.38-2.41 4.08-5.25.68-20.45-24.46-44.51-25.64-68.32-3.89-14.39 13.14-25.08 29.3-36.84 44.56-19 24.66-41.16 44.47-72.81 50.89-39 7.9-72.36-3.68-101.85-29a27.19 27.19 0 0 1-2.73-3.55z" fill="#f49e4a"></path><path d="M305.44 42.53c-20.88-6.51-40.09-7-59.55-2.1-29.15 7.35-50.75 25.57-70.07 47.33-18 20.29-31 44.25-48.23 65.06-13.9 16.77-29.61 31.07-50.85 38.25-30.77 10.42-61.28-6.31-67.5-38-3.26-16.64-.62-32.92 6.58-48.35a30.46 30.46 0 0 1 3.07-4.9 7.64 7.64 0 0 1 1.9-1.39c15.12 23.06 33 28.61 55.17 17A71.55 71.55 0 0 0 99.1 97c8.78-11 17.36-22.08 26.08-33.09 13.2-16.69 26.47-33.51 45.93-43.38C213.18-.83 253.53 3 291.78 30.23c4.39 3.12 9.49 5.53 13.66 12.3z" fill="#fae226"></path><path d="M156.89 0c-18.69 14.88-34.71 32.15-49.3 50.8C98.09 63 89.7 76 78.53 86.8c-6 5.82-12.72 10.48-21.31 11.82s-14.06-2.05-15.77-10.39c-2.68-13.08 2.88-24 10.65-33.51 15.11-18.54 35-31 56.36-41A147 147 0 0 1 156.89 0z" fill="#fae226"></path><path d="M221.94 360c2.29 2.38 5.38 1.06 8 1.72-4.21 4.7-9.72 3-15.64 4.12 2.08-4.02 4.47-5.48 7.64-5.84z" fill="#9c8d7f"></path></svg></svg> <!----></g></g> <g transform="translate(62,1.3938789367675781)"><g data-gra="path-name" fill-rule="" class="tp-name iconsvg-namesvg" transform="translate(0,0)"><g transform="scale(1)"><g><path d="M30.16-7.24L30.16-6.12 22.2-6.12 22.2 1.36Q22.16 1.48 21.76 1.68L21.76 1.68Q21.36 1.92 20.44 2.12 19.52 2.32 18.44 2.32L18.44 2.32 17.64 2.32 17.64-6.12 10.8-6.12 10.48-7.24 17.64-7.24 17.64-12.08 11.68-12.08 11.36-13.24 20.88-13.24Q21.96-16.56 22.68-20.2L22.68-20.2 26.48-18.68Q24.24-15.28 22.04-13.24L22.04-13.24 29.84-13.24 29.84-12.08 22.2-12.08 22.2-7.24 30.16-7.24ZM12.6-19.72L12.6-19.72 13.04-19.96Q17.64-18.92 18.4-16.48L18.4-16.48Q18.92-14.92 17.72-13.96L17.72-13.96Q16.48-12.88 14.92-13.92L14.92-13.92Q14.72-14.04 14.56-14.2L14.56-14.2Q14.52-17.04 12.6-19.72ZM22.4-28.16L38.56-28.16 38.56-27.04 22.4-27.04 22.4-21.76 35.76-21.76 35.76-1.72Q35.76 0.84 34.52 2.08L34.52 2.08Q33.32 3.32 29.48 3.68L29.48 3.68Q29.28 1.36 28.48 0.44L28.48 0.44Q27.28-0.76 24.84-1.12L24.84-1.12 24.84-1.68Q29-1.36 30.08-1.36L30.08-1.36Q30.92-1.36 30.92-2.2L30.92-2.2 30.92-20.64 9.64-20.64 9.64 1.96Q9.64 2.4 8.32 3 7 3.6 5.6 3.6L5.6 3.6 4.84 3.6 4.84-23.84 9.96-21.76 17.64-21.76 17.64-27.04 1.92-27.04 1.56-28.16 17.64-28.16 17.64-34.04 22.4-33.52 22.4-28.16ZM50.24-9.76L50.24-9.76 54.24-6.56Q51.92-3.8 48.48-1.6L48.48-1.6Q45.08 0.6 41.4 1.88L41.4 1.88 41.04 1.48Q43.76-0.68 46.32-3.88L46.32-3.88Q48.92-7.08 50.24-9.76ZM53.08-21.08L53.08-13.52 67-13.52 67-21.08 53.08-21.08ZM67-10.32L67-12.36 62.6-12.36 62.6-2.04Q62.6 0.6 61.36 1.92L61.36 1.92Q60.12 3.28 56.24 3.56L56.24 3.56Q56.04 1.16 55.36 0.32L55.36 0.32Q54.32-0.84 51.68-1.24L51.68-1.24 51.68-1.76Q55.92-1.48 56.8-1.48 57.68-1.48 57.68-2.2L57.68-2.2 57.68-12.36 53.08-12.36 53.08-11.48Q53.08-11.24 52.44-10.88L52.44-10.88Q51.84-10.56 50.8-10.24L50.8-10.24Q49.8-9.96 48.84-9.96L48.84-9.96 48.16-9.96 48.16-24.24 53.36-22.24 71.96-22.24 71.96-11.6Q71.92-11.44 71.24-11.12L71.24-11.12Q70.6-10.84 69.6-10.56L69.6-10.56Q68.64-10.32 67.88-10.32L67.88-10.32 67-10.32ZM65.08-8.56L65.08-8.56 65.44-8.84Q73.12-7.44 75.72-3.68L75.72-3.68Q77.24-1.52 76.36 0.2L76.36 0.2Q75.6 1.68 73.8 1.32L73.8 1.32Q73.28 1.2 72.72 0.92L72.72 0.92Q70.68-3.52 65.08-8.56ZM62.32-27.84L78.68-27.84 78.68-26.68 41.88-26.68 41.56-27.84 59.4-27.84Q58.76-29.52 57.48-31.16L57.48-31.16Q56.24-32.84 54.8-33.96L54.8-33.96 55.08-34.2Q61.08-34.4 62.96-31.76L62.96-31.76Q64.08-30.16 63.12-28.64L63.12-28.64Q62.84-28.16 62.32-27.84L62.32-27.84ZM106.8-17.96L96.52-17.92Q98.32-12.28 102.36-8.56L102.36-8.56Q105.36-12.8 106.8-17.96L106.8-17.96ZM96.84-19.12L111.76-19.12 111.76-17.08Q109.4-10.6 105.36-6.24L105.36-6.24Q110.76-2.64 119.44-1L119.44-1 119.4-0.56Q116.2 0.04 115.08 3.56L115.08 3.56Q107.12 0.88 102.72-3.68L102.72-3.68Q96.76 1.32 87.52 3.52L87.52 3.52 87.24 3Q95.4-0.24 100.6-6.28L100.6-6.28Q97.64-10.48 96.16-16.56L96.16-16.56Q92.16-3.36 81.68 2.76L81.68 2.76 81.2 2.44Q91.24-6.48 93.04-24.92L93.04-24.92 82.2-24.92 81.88-26 93.12-26Q93.4-29.24 93.48-34L93.48-34 98.8-33.56Q98.6-29.56 98.12-26L98.12-26 118.36-26 118.36-24.92 97.96-24.92Q97.48-21.76 96.84-19.12L96.84-19.12ZM137.76-24.68L137.76-24.68 137.44-25.84 158.84-25.84 158.84-24.68Q158.84-24.68 137.76-24.68ZM142.52-33.64L142.52-33.64 142.88-33.88Q148.24-32.96 149.56-30.12L149.56-30.12Q150.36-28.36 149.28-27.08L149.28-27.08Q148.16-25.8 146.48-26.56L146.48-26.56Q146.08-26.72 145.72-27L145.72-27Q145.56-28.68 144.64-30.48L144.64-30.48Q143.72-32.32 142.52-33.64ZM128-12.8L128-12.8 128.56-13.08Q132.32-10.08 132.08-7L132.08-7Q131.92-5.28 130.8-4.76L130.8-4.76Q129.76-4.28 129.08-5.44L129.08-5.44Q129.48-9.8 128-12.8ZM127.76-25.24L127.76-25.24 128.24-25.52Q132.04-23 132-20.08L132-20.08Q132-18.4 130.88-17.84L130.88-17.84Q129.84-17.28 129.12-18.44L129.12-18.44Q129.32-22.4 127.76-25.24ZM132.96-26.96L127.32-26.96 127.32-16.08Q132.16-16.52 132.96-16.6L132.96-16.6 132.96-26.96ZM136.68-15.88L136.68-15.88 136.68-1Q136.68 1.24 135.8 2.24 134.92 3.24 132.04 3.48L132.04 3.48Q131.92 1.64 131.4 0.92L131.4 0.92Q130.6 0.04 128.88-0.24L128.88-0.24 128.88-0.84Q131.56-0.64 132.24-0.64L132.24-0.64Q132.96-0.64 132.96-1.36L132.96-1.36 132.96-14.76Q130.08-13.96 127.32-13.32L127.32-13.32Q127.24-7.84 126.08-3.64L126.08-3.64Q124.96 0.52 121.6 3.64L121.6 3.64 121.08 3.28Q122.6 0.24 123.12-3.56L123.12-3.56Q123.64-7.4 123.68-12.48L123.68-12.48 123.12-12.36Q122.64-11.56 121.96-11.44L121.96-11.44 120.92-15.76Q121.52-15.76 123.68-15.84L123.68-15.84 123.68-29.72 127.52-28.24Q127.76-30.92 128-33.92L128-33.92 132.16-32.92Q130.88-30.16 129.04-28.08L129.04-28.08 136.68-28.08 136.68-17 139.08-17.28 139.12-16.64Q137.04-16 136.68-15.88ZM156.96-7.64L157.4-7.64 157.56-1.92Q158.24-1.6 158.44-1.24L158.44-1.24Q158.68-0.88 158.68-0.28L158.68-0.28Q158.68 2.16 154.12 2.16L154.12 2.16 152.56 2.16Q150.6 2.16 150.04 1.44 149.48 0.72 149.48-1.24L149.48-1.24 149.48-18.92 144.44-18.92 144.44-12.12Q144.44-10.28 144.32-8.84L144.32-8.84Q144.2-7.44 143.72-5.52L143.72-5.52Q143.24-3.64 142.4-2.12L142.4-2.12Q141.6-0.64 140.04 0.92L140.04 0.92Q138.52 2.52 136.36 3.72L136.36 3.72 135.96 3.28Q138.6 0.28 139.44-3.44L139.44-3.44Q140.32-7.16 140.32-12.12L140.32-12.12 140.32-21.8 145.12-20.04 153.56-20.04 153.56-2.4Q153.56-1.72 153.96-1.72L153.96-1.72 154.52-1.72Q154.92-1.72 155.04-1.76L155.04-1.76Q155.32-1.76 155.56-2.2L155.56-2.2Q155.92-2.96 156.96-7.64L156.96-7.64Z" transform="translate(-1.559999942779541, 34.21408462524414)"></path></g> <!----> <!----> <!----> <!----> <!----> <!----> <!----></g></g> <g data-gra="path-slogan" fill-rule="" class="tp-slogan iconsvg-slogansvg" fill="#333" transform="translate(5,45.934085845947266)"><rect x="0" height="1" y="3.2300000190734863" width="24.924999237060547"></rect> <rect height="1" y="3.2300000190734863" width="20.924999237060547" x="126.35499954223633"></rect> <g transform="translate(27.924999237060547,0)"><g transform="scale(1)"><path d="M1.91-7.15L5.51-1.37L5.51-7.15L6.45-7.15L6.45 0L5.35 0L1.72-5.78L1.68-5.78L1.68 0L0.74 0L0.74-7.15L1.91-7.15ZM12.66 0L11.95-2.07L9.06-2.07L8.32 0L7.34 0L10.04-7.15L11.13-7.15L13.71 0L12.66 0ZM10.51-6.09L9.38-2.93L11.60-2.93L10.55-6.09L10.51-6.09ZM15.74-7.15L19.34-1.37L19.34-7.15L20.27-7.15L20.27 0L19.18 0L15.55-5.78L15.51-5.78L15.51 0L14.57 0L14.57-7.15L15.74-7.15ZM21.17-1.60L21.17-2.30L22.07-2.30L22.07-1.80Q22.07-0.63 23.16-0.63L23.16-0.63Q24.30-0.63 24.30-1.88L24.30-1.88L24.30-7.15L25.27-7.15L25.27-1.91Q25.23 0.08 23.20 0.12L23.20 0.12Q21.29 0.08 21.17-1.60L21.17-1.60ZM26.91-7.15L27.89-7.15L27.89 0L26.91 0L26.91-7.15ZM30.70-7.15L34.30-1.37L34.30-7.15L35.23-7.15L35.23 0L34.14 0L30.51-5.78L30.47-5.78L30.47 0L29.53 0L29.53-7.15L30.70-7.15ZM42.07-3.01L39.88-3.01L39.88-3.83L43.01-3.83L43.01 0L42.38 0L42.15-0.90Q41.33 0.08 39.80 0.12L39.80 0.12Q38.36 0.12 37.58-0.63L37.58-0.63Q36.41-1.72 36.45-3.63L36.45-3.63Q36.72-7.19 39.84-7.34L39.84-7.34Q42.50-7.19 42.89-5L42.89-5L41.95-5Q41.56-6.48 39.80-6.52L39.80-6.52Q37.58-6.37 37.46-3.59L37.46-3.59Q37.46-0.63 39.84-0.63L39.84-0.63Q40.70-0.63 41.33-1.09L41.33-1.09Q42.11-1.72 42.07-3.01L42.07-3.01ZM53.05-7.15L50.35-2.89L50.35 0L49.38 0L49.38-2.89L46.68-7.15L47.81-7.15L49.84-3.71L51.91-7.15L53.05-7.15ZM59.57-3.55L59.57-3.55Q59.41-6.37 57.07-6.52L57.07-6.52Q54.69-6.41 54.57-3.55L54.57-3.55Q54.69-0.78 57.07-0.66L57.07-0.66Q59.41-0.82 59.57-3.55ZM60.55-3.55L60.55-3.55Q60.31 0 57.07 0.12L57.07 0.12Q53.79 0 53.55-3.55L53.55-3.55Q53.75-7.27 57.07-7.34L57.07-7.34Q60.31-7.23 60.55-3.55ZM66.41-2.66L66.41-7.15L67.38-7.15L67.38-2.54Q67.27 0.04 64.45 0.12L64.45 0.12Q61.84 0.04 61.72-2.38L61.72-2.38L61.72-7.15L62.70-7.15L62.70-2.66Q62.73-0.70 64.49-0.66L64.49-0.66Q66.41-0.70 66.41-2.66L66.41-2.66ZM69.84-4.22L73.59-4.22L73.59-7.15L74.57-7.15L74.57 0L73.59 0L73.59-3.32L69.84-3.32L69.84 0L68.87 0L68.87-7.15L69.84-7.15L69.84-4.22ZM80.78 0L80.08-2.07L77.19-2.07L76.45 0L75.47 0L78.16-7.15L79.26-7.15L81.84 0L80.78 0ZM78.63-6.09L77.50-2.93L79.73-2.93L78.67-6.09L78.63-6.09ZM83.87-7.15L87.46-1.37L87.46-7.15L88.40-7.15L88.40 0L87.30 0L83.67-5.78L83.63-5.78L83.63 0L82.70 0L82.70-7.15L83.87-7.15ZM95.23-3.01L93.05-3.01L93.05-3.83L96.17-3.83L96.17 0L95.55 0L95.31-0.90Q94.49 0.08 92.97 0.12L92.97 0.12Q91.52 0.12 90.74-0.63L90.74-0.63Q89.57-1.72 89.61-3.63L89.61-3.63Q89.88-7.19 93.01-7.34L93.01-7.34Q95.66-7.19 96.05-5L96.05-5L95.12-5Q94.73-6.48 92.97-6.52L92.97-6.52Q90.74-6.37 90.63-3.59L90.63-3.59Q90.63-0.63 93.01-0.63L93.01-0.63Q93.87-0.63 94.49-1.09L94.49-1.09Q95.27-1.72 95.23-3.01L95.23-3.01Z" transform="translate(-0.7421875, 7.34375)"></path></g></g></g></g></g><defs v-gra="od"></defs></svg>